<?xml version="1.0" standalone="no"?><svg xmlns="http://www.w3.org/2000/svg" viewBox="0 0 880 320"><path fill="#0099ff" fill-opacity="1" d="M0,0L30,53.3C60,107,120,213,180,224C240,235,300,149,360,128C420,107,480,149,540,192C600,235,660,277,720,272C780,267,840,213,900,202.7C960,192,1020,224,1080,240C1140,256,1200,256,1260,266.7C1320,277,1380,299,1410,309.3L1440,320L1440,320L1410,320C1380,320,1320,320,1260,320C1200,320,1140,320,1080,320C1020,320,960,320,900,320C840,320,780,320,720,320C660,320,600,320,540,320C480,320,420,320,360,320C300,320,240,320,180,320C120,320,60,320,30,320L0,320Z"></path></svg>